HIERARCHY
ROOT root
{
	OFFSET	0	13.1	24.9
	CHANNELS 6  Xposition Yposition Zposition Xrotation Yrotation Zrotation
	JOINT spine_1
	{
		OFFSET	0	9.99999	0
		CHANNELS 3  Xrotation Yrotation Zrotation
		JOINT spine_2
		{
			OFFSET	0	112	-10
			CHANNELS 3  Xrotation Yrotation Zrotation
			JOINT spine_3
			{
				OFFSET	0	206.5	19.3
				CHANNELS 3  Xrotation Yrotation Zrotation
				JOINT spine_4
				{
					OFFSET	0	110.4	14.6
					CHANNELS 3  Xrotation Yrotation Zrotation
					JOINT neck_1
					{
						OFFSET	0	71.8	-50.3
						CHANNELS 3  Xrotation Yrotation Zrotation
						JOINT neck_2
						{
							OFFSET	0	86.2	-25.8
							CHANNELS 3  Xrotation Yrotation Zrotation
							JOINT head_ee
							{
								OFFSET	0	179.8	-8.7
								CHANNELS 3  Xrotation Yrotation Zrotation
								End Site
								{
									OFFSET	1	0	0
								}
							}
						}
					}
					JOINT left_clavicle
					{
						OFFSET	-43.2	22.4	-70.8
						CHANNELS 3  Xrotation Yrotation Zrotation
						JOINT left_shoulder
						{
							OFFSET	-93.9	-5.79999	48.7
							CHANNELS 3  Xrotation Yrotation Zrotation
							JOINT left_elbow
							{
								OFFSET	-291.4	-30.8	15.2
								CHANNELS 3  Xrotation Yrotation Zrotation
								JOINT left_lowarm_twist
								{
									OFFSET	-110.7	-3.89999	13.6
									CHANNELS 3  Xrotation Yrotation Zrotation
									JOINT left_hand
									{
										OFFSET	-110.7	-3.89999	13.6
										CHANNELS 3  Xrotation Yrotation Zrotation
										JOINT left_ee
										{
											OFFSET	-80.8	-5.10001	12.1
											CHANNELS 3  Xrotation Yrotation Zrotation
											End Site
											{
												OFFSET	1	0	0
											}
										}
									}
								}
							}
						}
					}
					JOINT right_clavicle
					{
						OFFSET	43.2	22.4	-70.8
						CHANNELS 3  Xrotation Yrotation Zrotation
						JOINT right_shoulder
						{
							OFFSET	93.9	-5.79999	48.7
							CHANNELS 3  Xrotation Yrotation Zrotation
							JOINT right_elbow
							{
								OFFSET	291.4	-30.8	15.2
								CHANNELS 3  Xrotation Yrotation Zrotation
								JOINT right_lowarm_twist
								{
									OFFSET	110.7	-3.89999	13.6
									CHANNELS 3  Xrotation Yrotation Zrotation
									JOINT right_hand
									{
										OFFSET	110.7	-3.89999	13.6
										CHANNELS 3  Xrotation Yrotation Zrotation
										JOINT right_ee
										{
											OFFSET	80.8	-5.10001	12.1
											CHANNELS 3  Xrotation Yrotation Zrotation
											End Site
											{
												OFFSET	1	0	0
											}
										}
									}
								}
							}
						}
					}
				}
			}
		}
	}
	JOINT left_hip
	{
		OFFSET	-82.8	-127.5	0.300001
		CHANNELS 3  Xrotation Yrotation Zrotation
		JOINT left_knee
		{
			OFFSET	-28.2	-396.7	2.2
			CHANNELS 3  Xrotation Yrotation Zrotation
			JOINT left_ankle
			{
				OFFSET	-11.7	-411.3	35.4
				CHANNELS 3  Xrotation Yrotation Zrotation
				JOINT left_toes
				{
					OFFSET	0	-60	-88.6
					CHANNELS 3  Xrotation Yrotation Zrotation
					JOINT left_foot_ee
					{
						OFFSET	-22.5	-16.5	-42.2
						CHANNELS 3  Xrotation Yrotation Zrotation
						End Site
						{
							OFFSET	1	0	0
						}
					}
				}
			}
		}
	}
	JOINT right_hip
	{
		OFFSET	82.8	-127.5	0.300001
		CHANNELS 3  Xrotation Yrotation Zrotation
		JOINT right_knee
		{
			OFFSET	28.2	-396.7	2.2
			CHANNELS 3  Xrotation Yrotation Zrotation
			JOINT right_ankle
			{
				OFFSET	11.7	-411.3	35.4
				CHANNELS 3  Xrotation Yrotation Zrotation
				JOINT right_toes
				{
					OFFSET	0	-60	-88.6
					CHANNELS 3  Xrotation Yrotation Zrotation
					JOINT right_foot_ee
					{
						OFFSET	22.5	-16.5	-42.2
						CHANNELS 3  Xrotation Yrotation Zrotation
						End Site
						{
							OFFSET	1	0	0
						}
					}
				}
			}
		}
	}
}
MOTION
Frames: 13
Frame Time: 0.02
3177.02 653.055 -1669.29 -11.7052577098 12.8350738147 8.97548588827 3.80832 -0.267484 -0.343521 3.80835 -0.245083 -0.359845 3.80988 -0.190419 -0.391529 3.80975 -0.249864 -0.356542 -5.28803 14.5895 2.17126 -5.16847 25.3019 4.79301 -0.0 0.0 -0.0 1.82863 14.8029 4.68088 -31.1839 -25.3258 67.5092 0.554559 -15.3611 0.0747882 21.4567 0.250562 -2.71347 1.5412 9.10427 13.8467 -0.0 0.0 -0.0 11.4627 17.9521 -22.8368 -5.80221 14.1461 -60.6219 2.04065 45.3046 -0.8517 40.5363 0.377451 5.05799 0.345816 -1.29913 -2.84871 0.0 0.0 0.0 35.2964 3.95769 -15.3516 3.73447 -0.171702 -0.547172 -9.65474 8.4686 1.4387 -6.45764 0.0 0.0 -0.0 0.0 -0.0 6.28064 17.2437 -4.54789 -23.4115 -0.239553 -3.55977 28.2538 23.4945 4.25913 24.5308 -0.0 -0.0 0.0 0.0 0.0 
3157.0317846 651.594 -1691.14054107 -11.3758768956 11.9078919711 8.95414037819 3.7528 -0.139271 -0.581939 3.75298 -0.10196 -0.589621 3.75394 -0.0149564 -0.598185 3.75346 -0.109239 -0.588316 -3.96223 15.1307 3.0068 -3.74695 25.4261 5.4642 -0.0 0.0 -0.0 2.01221 14.3984 4.95043 -29.7751 -25.5689 67.2754 0.540088 -14.9785 0.0710013 21.5633 0.249256 -2.72702 1.53836 9.25111 13.8813 -0.0 0.0 -0.0 11.4436 17.6177 -22.8119 -7.51868 13.0683 -59.9106 1.93517 43.7852 -0.777705 40.0563 0.352194 5.00204 0.620382 -1.81306 -4.88982 0.0 0.0 0.0 35.3403 3.69581 -15.4131 1.91756 -0.0837008 -0.282329 -10.1162 6.31953 1.50969 -5.44422 0.0 0.0 -0.0 0.0 -0.0 6.47949 19.4168 -4.34734 -25.7729 -0.182628 -3.91765 26.072 20.7159 3.8831 24.2113 -0.0 -0.0 0.0 0.0 0.0 
3156.99276183 651.594 -1691.10478011 -11.3801557708 12.0082873459 8.97479169597 3.7528 -0.139271 -0.581939 3.75298 -0.10196 -0.589621 3.75394 -0.0149564 -0.598185 3.75346 -0.109239 -0.588316 -3.96223 15.1307 3.0068 -3.74695 25.4261 5.4642 -0.0 0.0 -0.0 2.01221 14.3984 4.95043 -29.7751 -25.5689 67.2754 0.540088 -14.9785 0.0710013 21.5633 0.249256 -2.72702 1.53836 9.25111 13.8813 -0.0 0.0 -0.0 11.4436 17.6177 -22.8119 -7.51868 13.0683 -59.9106 1.93517 43.7852 -0.777705 40.0563 0.352194 5.00204 0.620382 -1.81306 -4.88982 0.0 0.0 0.0 35.3403 3.69581 -15.4131 1.91756 -0.0837008 -0.282329 -10.1162 6.31953 1.50969 -5.44422 0.0 0.0 -0.0 0.0 -0.0 6.47949 19.4168 -4.34734 -25.7729 -0.182628 -3.91765 26.072 20.7159 3.8831 24.2113 -0.0 -0.0 0.0 0.0 0.0 
3156.94744475 651.594 -1691.06308948 -11.3851822437 12.1250816002 8.99883604266 3.7528 -0.139271 -0.581939 3.75298 -0.10196 -0.589621 3.75394 -0.0149564 -0.598185 3.75346 -0.109239 -0.588316 -3.96223 15.1307 3.0068 -3.74695 25.4261 5.4642 -0.0 0.0 -0.0 2.01221 14.3984 4.95043 -29.7751 -25.5689 67.2754 0.540088 -14.9785 0.0710013 21.5633 0.249256 -2.72702 1.53836 9.25111 13.8813 -0.0 0.0 -0.0 11.4436 17.6177 -22.8119 -7.51868 13.0683 -59.9106 1.93517 43.7852 -0.777705 40.0563 0.352194 5.00204 0.620382 -1.81306 -4.88982 0.0 0.0 0.0 35.3403 3.69581 -15.4131 1.91756 -0.0837008 -0.282329 -10.1162 6.31953 1.50969 -5.44422 0.0 0.0 -0.0 0.0 -0.0 6.47949 19.4168 -4.34734 -25.7729 -0.182628 -3.91765 26.072 20.7159 3.8831 24.2113 -0.0 -0.0 0.0 0.0 0.0 
3126.05735038 653.34 -1723.75007018 -11.1010639102 11.7415715157 7.895763432 3.62812 -0.198856 -0.690927 3.62837 -0.154488 -0.70218 3.63015 -0.0489775 -0.717303 3.62947 -0.161645 -0.700567 -4.72789 15.7486 3.50812 -4.54629 26.3448 6.23009 -0.0 0.0 -0.0 1.86175 13.8835 4.6713 -27.5311 -26.2394 67.6711 0.571042 -15.7952 0.0792147 21.0252 0.255594 -2.65859 1.28411 8.45571 11.9016 -0.0 0.0 -0.0 11.2574 15.8153 -22.4775 -9.07343 12.0849 -60.9662 1.58096 38.0639 -0.545386 39.5414 0.325625 4.94178 0.290551 -1.56307 -2.58992 0.0 0.0 0.0 33.8789 4.11015 -14.1745 -4.39796 0.155929 0.656778 -0.967829 1.87462 0.142894 -3.16378 0.0 0.0 -0.0 0.0 -0.0 5.59599 19.2632 -2.56934 -26.1707 -0.171588 -3.9777 23.0294 14.9126 3.33568 24.1939 -0.0 -0.0 0.0 0.0 0.0 
3105.47827873 655.944 -1749.86194374 -10.49574371 11.9161121155 7.67350713075 3.43956 -0.172014 -0.725687 3.43985 -0.12549 -0.735161 3.44134 -0.0129617 -0.745681 3.44059 -0.130562 -0.734277 -4.90312 16.3331 3.49835 -4.72016 27.4721 6.35658 -0.0 0.0 -0.0 1.88996 13.7727 4.70978 -26.7897 -26.4335 67.6535 0.535186 -14.8486 0.0697397 20.5925 0.260225 -2.6035 0.981293 8.28174 9.83882 -0.0 0.0 -0.0 11.084 15.4703 -22.1001 -10.608 10.988 -61.113 1.38859 34.5209 -0.431465 39.4332 0.320108 4.92908 0.167091 -2.83306 -2.296 0.0 0.0 0.0 33.7134 4.38244 -13.9081 -10.1693 0.283287 1.53291 6.76308 1.74901 -0.977533 -0.949511 0.0 0.0 -0.0 0.0 -0.0 5.64642 19.664 -2.38896 -28.5704 -0.0961622 -4.33823 21.1232 11.1144 3.01833 24.4096 -0.0 -0.0 0.0 0.0 0.0 
3105.99605656 655.944 -1750.3187323 -10.4818587725 11.5550904052 7.60524183962 3.43956 -0.172014 -0.725687 3.43985 -0.12549 -0.735161 3.44134 -0.0129617 -0.745681 3.44059 -0.130562 -0.734277 -4.90312 16.3331 3.49835 -4.72016 27.4721 6.35658 -0.0 0.0 -0.0 1.88996 13.7727 4.70978 -26.7897 -26.4335 67.6535 0.535186 -14.8486 0.0697397 20.5925 0.260225 -2.6035 0.981293 8.28174 9.83882 -0.0 0.0 -0.0 11.084 15.4703 -22.1001 -10.608 10.988 -61.113 1.38859 34.5209 -0.431465 39.4332 0.320108 4.92908 0.167091 -2.83306 -2.296 0.0 0.0 0.0 33.7134 4.38244 -13.9081 -10.1693 0.283287 1.53291 6.76308 1.74901 -0.977533 -0.949511 0.0 0.0 -0.0 0.0 -0.0 5.64642 19.664 -2.38896 -28.5704 -0.0961622 -4.33823 21.1232 11.1144 3.01833 24.4096 -0.0 -0.0 0.0 0.0 0.0 
3106.4692029 655.944 -1750.73102792 -10.4696342863 11.2269387918 7.54334709691 3.43956 -0.172014 -0.725687 3.43985 -0.12549 -0.735161 3.44134 -0.0129617 -0.745681 3.44059 -0.130562 -0.734277 -4.90312 16.3331 3.49835 -4.72016 27.4721 6.35658 -0.0 0.0 -0.0 1.88996 13.7727 4.70978 -26.7897 -26.4335 67.6535 0.535186 -14.8486 0.0697397 20.5925 0.260225 -2.6035 0.981293 8.28174 9.83882 -0.0 0.0 -0.0 11.084 15.4703 -22.1001 -10.608 10.988 -61.113 1.38859 34.5209 -0.431465 39.4332 0.320108 4.92908 0.167091 -2.83306 -2.296 0.0 0.0 0.0 33.7134 4.38244 -13.9081 -10.1693 0.283287 1.53291 6.76308 1.74901 -0.977533 -0.949511 0.0 0.0 -0.0 0.0 -0.0 5.64642 19.664 -2.38896 -28.5704 -0.0961622 -4.33823 21.1232 11.1144 3.01833 24.4096 -0.0 -0.0 0.0 0.0 0.0 
3092.45419005 657.322 -1777.67475163 -9.34716745056 11.1139853402 7.02905964679 3.34408 -0.14623 -0.634157 3.34429 -0.105582 -0.642176 3.34539 -0.00624193 -0.650768 3.34482 -0.108938 -0.641616 -6.07672 15.8696 4.13763 -5.98246 26.3849 7.17118 -0.0 0.0 -0.0 0.980734 13.4852 3.19802 -25.714 -26.9479 67.7243 0.590231 -16.2982 0.0845189 20.8106 0.257943 -2.63127 0.792357 8.18253 8.56101 -0.0 0.0 -0.0 10.7684 15.0523 -21.4068 -13.6683 10.0571 -62.5345 1.22589 31.2678 -0.343067 39.5032 0.323674 4.9373 0.472699 -1.69211 -3.85595 0.0 0.0 0.0 32.541 4.30704 -13.5393 -13.79 0.317921 2.08729 11.0844 -0.245759 -1.58518 -0.428367 0.0 0.0 -0.0 0.0 -0.0 5.47496 19.5863 -2.39614 -32.1762 0.0454215 -4.87339 23.6482 7.12314 3.26792 24.6221 -0.0 -0.0 0.0 0.0 0.0 
3092.29226466 657.322 -1777.54821661 -9.34991122404 11.1984969062 7.0432404425 3.34408 -0.14623 -0.634157 3.34429 -0.105582 -0.642176 3.34539 -0.00624193 -0.650768 3.34482 -0.108938 -0.641616 -6.07672 15.8696 4.13763 -5.98246 26.3849 7.17118 -0.0 0.0 -0.0 0.980734 13.4852 3.19802 -25.714 -26.9479 67.7243 0.590231 -16.2982 0.0845189 20.8106 0.257943 -2.63127 0.792357 8.18253 8.56101 -0.0 0.0 -0.0 10.7684 15.0523 -21.4068 -13.6683 10.0571 -62.5345 1.22589 31.2678 -0.343067 39.5032 0.323674 4.9373 0.472699 -1.69211 -3.85595 0.0 0.0 0.0 32.541 4.30704 -13.5393 -13.79 0.317921 2.08729 11.0844 -0.245759 -1.58518 -0.428367 0.0 0.0 -0.0 0.0 -0.0 5.47496 19.5863 -2.39614 -32.1762 0.0454215 -4.87339 23.6482 7.12314 3.26792 24.6221 -0.0 -0.0 0.0 0.0 0.0 
3089.8114992 657.322 -1775.55997689 -9.395199274 12.5058665386 7.26372638781 3.34408 -0.14623 -0.634157 3.34429 -0.105582 -0.642176 3.34539 -0.00624193 -0.650768 3.34482 -0.108938 -0.641616 -6.07672 15.8696 4.13763 -5.98246 26.3849 7.17118 -0.0 0.0 -0.0 0.980734 13.4852 3.19802 -25.714 -26.9479 67.7243 0.590231 -16.2982 0.0845189 20.8106 0.257943 -2.63127 0.792357 8.18253 8.56101 -0.0 0.0 -0.0 10.7684 15.0523 -21.4068 -13.6683 10.0571 -62.5345 1.22589 31.2678 -0.343067 39.5032 0.323674 4.9373 0.472699 -1.69211 -3.85595 0.0 0.0 0.0 32.541 4.30704 -13.5393 -13.79 0.317921 2.08729 11.0844 -0.245759 -1.58518 -0.428367 0.0 0.0 -0.0 0.0 -0.0 5.47496 19.5863 -2.39614 -32.1762 0.0454215 -4.87339 23.6482 7.12314 3.26792 24.6221 -0.0 -0.0 0.0 0.0 0.0 
3061.52150869 665.203 -1821.03844119 -6.80429469838 11.2516679451 6.78847263987 3.30603 -0.152361 -0.020024 3.30602 -0.150778 -0.0296786 3.3061 -0.144438 -0.052463 3.30613 -0.150911 -0.0289932 -8.75662 16.2539 5.81111 -8.81749 26.4894 9.48874 -0.0 0.0 -0.0 0.803808 12.0558 2.77023 -18.8158 -26.9688 64.6266 0.615096 -16.9461 0.0916321 22.2358 0.240432 -2.81247 0.0700393 9.67683 4.46215 -0.0 0.0 -0.0 10.4026 14.6477 -20.604 -17.6889 8.71592 -65.5128 0.977764 25.843 -0.224329 38.9482 0.295689 4.87208 0.253621 -6.30879 -4.29177 0.0 0.0 0.0 31.4758 4.80541 -13.1244 -21.2334 0.278941 3.22787 18.4136 2.53664 -2.54074 1.40109 -0.0 -0.0 -0.0 0.0 -0.0 9.79907 21.4588 -5.55675 -42.041 0.601696 -6.28161 25.6746 1.01323 3.43857 24.5485 -0.0 -0.0 0.0 0.0 0.0 
3046.17503435 665.267 -1842.24533951 -6.09068036705 13.5223948065 6.57152629383 3.24443 -0.140959 0.133242 3.24443 -0.149151 0.124003 3.24411 -0.16652 0.0994671 3.24412 -0.148722 0.124518 -10.2655 16.0102 5.38204 -10.4571 26.6344 9.36969 -0.0 0.0 -0.0 0.552731 12.228 2.36759 -16.0666 -26.7254 62.5408 0.652432 -17.9107 0.102815 23.1458 0.226895 -2.92791 -0.248549 9.93306 2.52027 -0.0 0.0 -0.0 9.65186 13.9039 -18.9669 -19.2284 8.83499 -67.8764 0.924576 24.6078 -0.20166 38.4117 0.269237 4.80877 0.213561 -8.55445 -4.93734 0.0 0.0 0.0 30.4144 5.01623 -12.8231 -24.8602 0.206378 3.7796 20.3848 4.43389 -2.78126 2.30225 -0.0 -0.0 -0.0 0.0 -0.0 12.0491 22.4388 -6.53577 -46.9737 0.968934 -6.94547 25.523 -0.792249 3.40851 24.626 -0.0 -0.0 0.0 0.0 0.0 
